<svg width="641" height="85" viewBox="0 0 641 85" fill="none" xmlns="http://www.w3.org/2000/svg">
<path d="M5.98149 18.3135H15.3015V39.3182H39.5752V18.3135H48.9647V67H39.5752V47.0385H15.3015V67H5.98149V18.3135ZM85.691 45.6475C85.5983 43.7 85.1578 42.054 84.3695 40.7093C83.5812 39.3182 82.4684 38.2518 81.031 37.5099C79.64 36.7216 78.0403 36.3275 76.2319 36.3275C74.1453 36.3275 72.337 36.8144 70.8068 37.7881C69.2767 38.7618 68.0711 40.1297 67.1901 41.8917C66.3555 43.6537 65.9382 45.6939 65.9382 48.0123C65.9382 50.5625 66.4019 52.765 67.3292 54.6197C68.303 56.4744 69.6244 57.9118 71.2937 58.9319C72.9629 59.9057 74.8872 60.3925 77.0665 60.3925C81.0078 60.3925 84.3695 58.9783 87.1516 56.1499L91.9507 60.949C90.096 62.9892 87.8471 64.5657 85.2041 65.6785C82.5611 66.7913 79.6168 67.3478 76.371 67.3478C72.4761 67.3478 69.0912 66.5595 66.2164 64.983C63.3879 63.3601 61.1623 61.1576 59.5394 58.3755C57.9629 55.5471 57.1746 52.2549 57.1746 48.4991C57.1746 44.7433 57.9629 41.4512 59.5394 38.6227C61.1623 35.7943 63.3879 33.5918 66.2164 32.0153C69.0912 30.4387 72.3833 29.6273 76.0928 29.5809C80.4978 29.5809 84.0449 30.4851 86.7343 32.2935C89.47 34.1018 91.4175 36.6521 92.5767 39.9442C93.7359 43.19 94.1532 47.0617 93.8286 51.5594H64.6167V45.6475H85.691ZM114.263 50.6552C111.898 50.6552 110.136 51.0262 108.977 51.7681C107.818 52.51 107.238 53.7387 107.238 55.4543C107.238 57.0309 107.818 58.306 108.977 59.2797C110.182 60.2534 111.805 60.7403 113.845 60.7403C115.654 60.7403 117.277 60.4389 118.714 59.8361C120.198 59.187 121.357 58.3292 122.192 57.2627C123.073 56.1499 123.583 54.9211 123.722 53.5764L125.252 60.0448C124.139 62.4559 122.424 64.2875 120.105 65.5394C117.787 66.7913 114.982 67.4173 111.689 67.4173C109.046 67.4173 106.751 66.9073 104.804 65.8872C102.856 64.8671 101.349 63.4992 100.283 61.7836C99.2164 60.0216 98.6831 58.051 98.6831 55.8717C98.6831 52.4404 99.9119 49.7511 102.369 47.8036C104.827 45.8098 108.305 44.7897 112.802 44.7433H124.696V50.6552H114.263ZM123.652 43.6305C123.652 41.4048 122.934 39.666 121.496 38.4141C120.105 37.1158 118.019 36.4666 115.237 36.4666C113.521 36.4666 111.713 36.7912 109.811 37.4403C107.957 38.0431 106.079 38.9241 104.178 40.0833L100.909 34.2409C102.671 33.1745 104.363 32.3167 105.986 31.6675C107.609 30.972 109.301 30.4619 111.063 30.1373C112.872 29.7664 114.935 29.5809 117.254 29.5809C122.122 29.5809 125.878 30.7401 128.521 33.0585C131.164 35.3769 132.509 38.5763 132.555 42.6567L132.625 67H123.722L123.652 43.6305ZM143.116 15.3923H152.158V67H143.116V15.3923ZM174.259 54.8979C174.259 56.7526 174.606 58.0278 175.302 58.7233C175.997 59.4188 176.948 59.7666 178.154 59.7666C178.895 59.7666 179.707 59.6507 180.588 59.4188C181.469 59.1406 182.419 58.7233 183.44 58.1669L185.526 64.7048C184.135 65.5394 182.628 66.2117 181.005 66.7218C179.429 67.1855 177.829 67.4173 176.206 67.4173C174.212 67.4173 172.381 67.0464 170.711 66.3045C169.042 65.5162 167.721 64.3106 166.747 62.6878C165.773 61.0185 165.286 58.9319 165.286 56.4281V21.1651H174.259V54.8979ZM160.07 31.3197H184.9V37.649H160.07V31.3197ZM220.096 46.2735C220.096 43.5841 219.354 41.4744 217.871 39.9442C216.433 38.4141 214.416 37.649 211.82 37.649C208.759 37.649 206.348 38.7154 204.586 40.8484C202.87 42.9349 202.013 45.5779 202.013 48.7773H199.648C199.648 44.2333 200.274 40.5702 201.526 37.7881C202.824 34.9596 204.656 32.8963 207.02 31.5979C209.385 30.2533 212.19 29.5809 215.436 29.5809C218.265 29.5809 220.699 30.1605 222.739 31.3197C224.826 32.4789 226.425 34.125 227.538 36.2579C228.651 38.3445 229.208 40.8716 229.208 43.8391V67H220.096V46.2735ZM192.971 15.3923H202.013V67H192.971V15.3923ZM261.749 18.2439C265.598 18.2439 268.913 18.754 271.695 19.7741C274.477 20.7942 276.633 22.2316 278.164 24.0863C279.694 25.8947 280.459 28.0508 280.459 30.5547C280.459 33.0122 279.717 35.1915 278.233 37.0926C276.749 38.9937 274.732 40.3151 272.182 41.057C275.196 41.7062 277.584 43.1436 279.346 45.3693C281.108 47.5949 281.989 50.2611 281.989 53.3678C281.989 56.1499 281.201 58.561 279.624 60.6012C278.048 62.6414 275.822 64.2179 272.947 65.3307C270.119 66.4436 266.734 67 262.793 67H237.823V18.2439H261.749ZM260.984 37.3708C262.375 37.3708 263.488 36.9998 264.323 36.2579C265.204 35.4697 265.644 34.4264 265.644 33.1281C265.644 31.8298 265.204 30.8329 264.323 30.1373C263.488 29.4418 262.375 29.0941 260.984 29.0941H252.221V37.3708H260.984ZM260.984 56.1499C262.793 56.1962 264.253 55.8021 265.366 54.9675C266.479 54.1328 267.035 52.9968 267.035 51.5594C267.035 50.2611 266.479 49.2178 265.366 48.4296C264.253 47.6413 262.793 47.2704 260.984 47.3167H252.221V56.1499H260.984ZM310.904 44.6042C310.95 43.3059 310.741 42.1931 310.278 41.2657C309.814 40.292 309.142 39.5501 308.261 39.04C307.38 38.4836 306.36 38.2054 305.2 38.2054C303.809 38.2054 302.627 38.6227 301.653 39.4573C300.726 40.2456 300.007 41.3352 299.497 42.7263C298.987 44.1173 298.732 45.6939 298.732 47.4558C298.732 49.496 299.057 51.2348 299.706 52.6723C300.401 54.1097 301.329 55.2225 302.488 56.0108C303.693 56.7526 305.084 57.1236 306.661 57.1236C309.721 57.1236 312.503 55.918 315.007 53.5069L322.31 60.6708C320.363 62.8501 317.952 64.5425 315.077 65.7481C312.248 66.9073 309.049 67.4869 305.479 67.4869C301.259 67.4869 297.619 66.6986 294.559 65.1221C291.545 63.4992 289.203 61.2504 287.534 58.3755C285.911 55.4543 285.1 52.0695 285.1 48.2209C285.1 44.2796 285.934 40.8484 287.604 37.9272C289.273 35.006 291.591 32.734 294.559 31.1111C297.573 29.4882 301.074 28.6768 305.061 28.6768C309.513 28.6768 313.245 29.6273 316.259 31.5284C319.273 33.3831 321.499 36.0261 322.936 39.4573C324.42 42.8422 325.023 46.8531 324.745 51.4899H296.854V44.6042H310.904ZM356.069 47.0385C356.069 45.1374 355.559 43.6537 354.539 42.5872C353.565 41.4744 352.267 40.9179 350.644 40.9179C348.743 40.9643 347.236 41.6598 346.123 43.0045C345.01 44.3492 344.454 46.1112 344.454 48.2905H341.254C341.254 44.1637 341.857 40.6165 343.063 37.649C344.315 34.6814 346.077 32.4326 348.349 30.9024C350.621 29.3723 353.333 28.6072 356.486 28.6072C359.176 28.6072 361.541 29.1868 363.581 30.346C365.667 31.5052 367.267 33.1745 368.38 35.3538C369.539 37.5331 370.119 40.0833 370.119 43.0045V67H356.069V47.0385ZM330.404 29.1636H344.454V67H330.404V29.1636ZM400.425 44.6042C400.471 43.3059 400.263 42.1931 399.799 41.2657C399.335 40.292 398.663 39.5501 397.782 39.04C396.901 38.4836 395.881 38.2054 394.722 38.2054C393.331 38.2054 392.148 38.6227 391.174 39.4573C390.247 40.2456 389.528 41.3352 389.018 42.7263C388.508 44.1173 388.253 45.6939 388.253 47.4558C388.253 49.496 388.578 51.2348 389.227 52.6723C389.922 54.1097 390.85 55.2225 392.009 56.0108C393.215 56.7526 394.606 57.1236 396.182 57.1236C399.242 57.1236 402.025 55.918 404.528 53.5069L411.831 60.6708C409.884 62.8501 407.473 64.5425 404.598 65.7481C401.77 66.9073 398.57 67.4869 395 67.4869C390.78 67.4869 387.14 66.6986 384.08 65.1221C381.066 63.4992 378.725 61.2504 377.055 58.3755C375.432 55.4543 374.621 52.0695 374.621 48.2209C374.621 44.2796 375.456 40.8484 377.125 37.9272C378.794 35.006 381.113 32.734 384.08 31.1111C387.094 29.4882 390.595 28.6768 394.582 28.6768C399.034 28.6768 402.766 29.6273 405.78 31.5284C408.794 33.3831 411.02 36.0261 412.457 39.4573C413.941 42.8422 414.544 46.8531 414.266 51.4899H386.375V44.6042H400.425ZM421.888 27.6335C421.888 24.9441 422.514 22.6489 423.766 20.7478C425.064 18.8003 426.849 17.3166 429.121 16.2965C431.393 15.23 434.013 14.7199 436.981 14.7663C438.418 14.7663 439.855 14.9054 441.293 15.1836C442.73 15.4155 444.075 15.7401 445.327 16.1574L443.797 26.5902C443.055 26.3583 442.336 26.1497 441.641 25.9642C440.991 25.7787 440.365 25.686 439.763 25.686C438.974 25.686 438.279 25.8251 437.676 26.1033C437.12 26.3815 436.656 26.7988 436.285 27.3553C435.96 27.8653 435.798 28.5145 435.798 29.3027V67H421.888V27.6335ZM416.741 31.1111H443.658V40.0833H416.741V31.1111ZM447.9 29.1636H461.95V67H447.9V29.1636ZM454.995 11.1496C457.127 11.1496 458.866 11.8451 460.211 13.2362C461.556 14.5808 462.228 16.2965 462.228 18.383C462.228 20.516 461.556 22.2548 460.211 23.5994C458.866 24.9441 457.127 25.6165 454.995 25.6165C452.908 25.6165 451.169 24.9441 449.778 23.5994C448.433 22.2548 447.761 20.516 447.761 18.383C447.761 16.2965 448.433 14.5808 449.778 13.2362C451.169 11.8451 452.908 11.1496 454.995 11.1496ZM486.317 53.02C486.317 54.2256 486.596 55.1298 487.152 55.7325C487.755 56.3353 488.543 56.6367 489.517 56.6367C490.073 56.6367 490.722 56.544 491.464 56.3585C492.206 56.1267 492.994 55.8485 493.829 55.5239L496.333 65.1916C495.035 65.9335 493.435 66.5363 491.534 67C489.679 67.4173 487.778 67.626 485.831 67.626C483.141 67.626 480.776 67.1391 478.736 66.1654C476.742 65.1916 475.166 63.7774 474.007 61.9227C472.894 60.0216 472.337 57.7727 472.337 55.1761V20.6087H486.317V53.02ZM467.121 31.1111H495.637V40.0833H467.121V31.1111ZM528.342 41.9612C525.792 40.6629 523.45 39.6892 521.317 39.04C519.231 38.3445 517.446 37.9967 515.962 37.9967C515.127 37.9967 514.432 38.159 513.875 38.4836C513.365 38.7618 513.11 39.2023 513.11 39.8051C513.11 40.5006 513.574 41.0802 514.501 41.5439C515.475 41.9612 516.704 42.3785 518.188 42.7958C519.718 43.2132 521.317 43.6768 522.987 44.1869C524.656 44.6969 526.232 45.4156 527.716 46.343C529.246 47.224 530.475 48.36 531.402 49.7511C532.376 51.1421 532.863 52.9273 532.863 55.1066C532.863 57.7032 532.144 59.9289 530.707 61.7836C529.316 63.6383 527.368 65.0757 524.865 66.0958C522.407 67.1159 519.532 67.626 516.24 67.626C512.902 67.626 509.702 67.1855 506.642 66.3045C503.628 65.3771 500.892 64.0324 498.435 62.2705L502.747 53.4373C505.112 54.9675 507.453 56.1267 509.772 56.9149C512.137 57.7032 514.362 58.0973 516.449 58.0973C517.098 58.0973 517.654 58.0278 518.118 57.8887C518.582 57.7496 518.929 57.5641 519.161 57.3322C519.44 57.054 519.579 56.7295 519.579 56.3585C519.579 55.663 519.115 55.0834 518.188 54.6197C517.26 54.156 516.055 53.7387 514.571 53.3678C513.133 52.9968 511.58 52.5563 509.911 52.0463C508.242 51.4899 506.665 50.7712 505.181 49.8902C503.744 49.0092 502.562 47.8732 501.634 46.4821C500.707 45.0911 500.243 43.3291 500.243 41.1961C500.243 38.5068 500.915 36.2348 502.26 34.38C503.651 32.5253 505.552 31.0879 507.963 30.0678C510.375 29.0477 513.18 28.5376 516.379 28.5376C519.254 28.5376 522.106 28.9318 524.934 29.72C527.763 30.4619 530.452 31.5979 533.002 33.1281L528.342 41.9612Z" fill="#0D5C91"/>
<path d="M538.606 62.104C539.366 62.104 539.981 62.3499 540.45 62.8418C540.942 63.3113 541.188 63.926 541.188 64.6861C541.188 65.4463 540.942 66.0722 540.45 66.5641C539.981 67.0559 539.366 67.3018 538.606 67.3018C537.868 67.3018 537.253 67.0559 536.761 66.5641C536.27 66.0722 536.024 65.4463 536.024 64.6861C536.024 63.926 536.27 63.3113 536.761 62.8418C537.253 62.3499 537.868 62.104 538.606 62.104ZM560.616 49.8976C559.789 49.3834 558.928 48.9587 558.034 48.6233C557.162 48.2656 556.312 47.9974 555.485 47.8185C554.68 47.6173 553.954 47.5167 553.305 47.5167C552.411 47.5167 551.685 47.6955 551.126 48.0532C550.589 48.3886 550.321 48.9028 550.321 49.5958C550.321 50.2441 550.545 50.7807 550.992 51.2054C551.461 51.6079 552.065 51.9432 552.802 52.2115C553.54 52.4574 554.356 52.7145 555.25 52.9828C556.145 53.2287 557.028 53.5193 557.9 53.8546C558.794 54.19 559.61 54.6259 560.348 55.1625C561.108 55.6767 561.7 56.3473 562.125 57.1745C562.572 57.9793 562.796 58.9854 562.796 60.1926C562.796 61.7128 562.393 62.9983 561.588 64.049C560.784 65.0997 559.677 65.9046 558.269 66.4635C556.882 67.0224 555.329 67.3018 553.607 67.3018C552.311 67.3018 551.036 67.1453 549.784 66.8323C548.532 66.5193 547.348 66.0834 546.23 65.5245C545.134 64.9432 544.14 64.2726 543.245 63.5125L545.358 59.3542C546.163 60.0696 547.046 60.6956 548.007 61.2321C548.991 61.7687 549.974 62.1823 550.958 62.4729C551.942 62.7635 552.847 62.9088 553.674 62.9088C554.77 62.9088 555.619 62.6965 556.223 62.2717C556.849 61.8469 557.162 61.2433 557.162 60.4609C557.162 59.7902 556.938 59.2536 556.491 58.8512C556.044 58.4488 555.452 58.1135 554.714 57.8452C553.976 57.5546 553.16 57.2975 552.266 57.0739C551.372 56.828 550.477 56.5485 549.583 56.2356C548.689 55.9002 547.873 55.4866 547.135 54.9948C546.397 54.4806 545.794 53.8323 545.324 53.0498C544.877 52.2674 544.654 51.2725 544.654 50.0653C544.654 48.6345 545.034 47.4049 545.794 46.3765C546.554 45.3258 547.616 44.521 548.98 43.9621C550.343 43.3808 551.931 43.0902 553.741 43.0902C555.396 43.0902 557.005 43.3361 558.57 43.8279C560.135 44.2974 561.499 44.9122 562.662 45.6723L560.616 49.8976ZM566.509 43.5261H571.807V53.3852H582.437V43.5261H587.736V67H582.437V57.644H571.807V67H566.509V43.5261ZM603.836 43.1908C605.624 43.1908 607.278 43.4926 608.799 44.0962C610.341 44.6998 611.683 45.5494 612.823 46.6448C613.963 47.7403 614.846 49.0146 615.472 50.4677C616.12 51.9208 616.444 53.5081 616.444 55.2295C616.444 56.9286 616.12 58.5159 615.472 59.9914C614.846 61.4669 613.963 62.7635 612.823 63.8813C611.683 64.9768 610.341 65.8375 608.799 66.4635C607.278 67.0671 605.624 67.3689 603.836 67.3689C602.047 67.3689 600.382 67.0671 598.839 66.4635C597.319 65.8375 595.989 64.9768 594.848 63.8813C593.708 62.7635 592.814 61.4669 592.166 59.9914C591.54 58.5159 591.227 56.9286 591.227 55.2295C591.227 53.5081 591.54 51.9208 592.166 50.4677C592.814 48.9922 593.708 47.7179 594.848 46.6448C595.989 45.5494 597.319 44.6998 598.839 44.0962C600.382 43.4926 602.047 43.1908 603.836 43.1908ZM603.903 47.6508C602.919 47.6508 601.98 47.8409 601.086 48.2209C600.214 48.601 599.443 49.1375 598.772 49.8305C598.124 50.5236 597.609 51.3284 597.229 52.245C596.849 53.1616 596.659 54.1564 596.659 55.2295C596.659 56.3026 596.849 57.3087 597.229 58.2476C597.609 59.1642 598.135 59.9802 598.805 60.6956C599.476 61.3886 600.247 61.9364 601.119 62.3388C601.991 62.7188 602.919 62.9088 603.903 62.9088C604.886 62.9088 605.803 62.7188 606.652 62.3388C607.524 61.9364 608.284 61.3886 608.933 60.6956C609.581 59.9802 610.084 59.1642 610.442 58.2476C610.822 57.3087 611.012 56.3026 611.012 55.2295C611.012 54.1564 610.822 53.1616 610.442 52.245C610.084 51.3284 609.581 50.5236 608.933 49.8305C608.284 49.1375 607.524 48.601 606.652 48.2209C605.803 47.8409 604.886 47.6508 603.903 47.6508ZM629.88 43.5261C632.854 43.5261 635.156 44.2415 636.788 45.6723C638.443 47.0808 639.27 49.0704 639.27 51.6414C639.27 54.3465 638.443 56.4591 636.788 57.9793C635.156 59.4772 632.854 60.2261 629.88 60.2261H622.905L625.219 57.9123V67H619.921V43.5261H629.88ZM629.612 55.9338C631.088 55.9338 632.228 55.5984 633.033 54.9277C633.837 54.2347 634.24 53.1951 634.24 51.8091C634.24 50.4677 633.837 49.4617 633.033 48.791C632.228 48.1203 631.088 47.785 629.612 47.785H622.905L625.219 45.4711V58.2811L622.905 55.9338H629.612Z" fill="#68ABD8"/>
</svg>
